<svg width="265" height="60" viewBox="0 0 265 60" fill="none" xmlns="http://www.w3.org/2000/svg">
<path d="M0 30C0 13.4315 13.4315 0 30 0H235C251.569 0 265 13.4315 265 30C265 46.5685 251.569 60 235 60H30C13.4314 60 0 46.5685 0 30Z" fill="#989898"/>
<path d="M19.7727 15.7273L26.6818 35.3182H26.9545L33.8636 15.7273H36.8182L28.2727 39H25.3636L16.8182 15.7273H19.7727Z" fill="white"/>
<path d="M40.0795 39V21.5455H42.7614V39H40.0795ZM41.4432 18.6364C40.9205 18.6364 40.4697 18.4583 40.0909 18.1023C39.7197 17.7462 39.5341 17.3182 39.5341 16.8182C39.5341 16.3182 39.7197 15.8902 40.0909 15.5341C40.4697 15.178 40.9205 15 41.4432 15C41.9659 15 42.4129 15.178 42.7841 15.5341C43.1629 15.8902 43.3523 16.3182 43.3523 16.8182C43.3523 17.3182 43.1629 17.7462 42.7841 18.1023C42.4129 18.4583 41.9659 18.6364 41.4432 18.6364Z" fill="white"/>
<path d="M54.9915 39.3636C53.3097 39.3636 51.8589 38.9924 50.6392 38.25C49.4271 37.5 48.4915 36.4545 47.8324 35.1136C47.1809 33.7652 46.8551 32.197 46.8551 30.4091C46.8551 28.6212 47.1809 27.0455 47.8324 25.6818C48.4915 24.3106 49.4081 23.2424 50.5824 22.4773C51.7642 21.7045 53.143 21.3182 54.7188 21.3182C55.6278 21.3182 56.5256 21.4697 57.4119 21.7727C58.2983 22.0758 59.1051 22.5682 59.8324 23.25C60.5597 23.9242 61.1392 24.8182 61.571 25.9318C62.0028 27.0455 62.2188 28.4167 62.2188 30.0455V31.1818H48.7642V28.8636H59.4915C59.4915 27.8788 59.2945 27 58.9006 26.2273C58.5142 25.4545 57.9612 24.8447 57.2415 24.3977C56.5294 23.9508 55.6884 23.7273 54.7188 23.7273C53.6506 23.7273 52.7263 23.9924 51.946 24.5227C51.1733 25.0455 50.5786 25.7273 50.1619 26.5682C49.7453 27.4091 49.5369 28.3106 49.5369 29.2727V30.8182C49.5369 32.1364 49.7642 33.2538 50.2188 34.1705C50.6809 35.0795 51.321 35.7727 52.1392 36.25C52.9574 36.7197 53.9081 36.9545 54.9915 36.9545C55.696 36.9545 56.3324 36.8561 56.9006 36.6591C57.4763 36.4545 57.9725 36.1515 58.3892 35.75C58.8059 35.3409 59.1278 34.8333 59.3551 34.2273L61.946 34.9545C61.6733 35.8333 61.215 36.6061 60.571 37.2727C59.9271 37.9318 59.1316 38.447 58.1847 38.8182C57.2377 39.1818 56.1733 39.3636 54.9915 39.3636Z" fill="white"/>
<path d="M70.2528 39L64.9347 21.5455H67.7528L71.5256 34.9091H71.7074L75.4347 21.5455H78.2983L81.9801 34.8636H82.1619L85.9347 21.5455H88.7528L83.4347 39H80.7983L76.9801 25.5909H76.7074L72.8892 39H70.2528Z" fill="white"/>
<path d="M101.298 39V21.5455H103.889V24.1818H104.071C104.389 23.3182 104.965 22.6174 105.798 22.0795C106.632 21.5417 107.571 21.2727 108.616 21.2727C108.813 21.2727 109.06 21.2765 109.355 21.2841C109.651 21.2917 109.874 21.303 110.026 21.3182V24.0455C109.935 24.0227 109.726 23.9886 109.401 23.9432C109.082 23.8902 108.745 23.8636 108.389 23.8636C107.541 23.8636 106.783 24.0417 106.116 24.3977C105.457 24.7462 104.935 25.2311 104.548 25.8523C104.17 26.4659 103.98 27.1667 103.98 27.9545V39H101.298Z" fill="white"/>
<path d="M119.991 39.3636C118.31 39.3636 116.859 38.9924 115.639 38.25C114.427 37.5 113.491 36.4545 112.832 35.1136C112.181 33.7652 111.855 32.197 111.855 30.4091C111.855 28.6212 112.181 27.0455 112.832 25.6818C113.491 24.3106 114.408 23.2424 115.582 22.4773C116.764 21.7045 118.143 21.3182 119.719 21.3182C120.628 21.3182 121.526 21.4697 122.412 21.7727C123.298 22.0758 124.105 22.5682 124.832 23.25C125.56 23.9242 126.139 24.8182 126.571 25.9318C127.003 27.0455 127.219 28.4167 127.219 30.0455V31.1818H113.764V28.8636H124.491C124.491 27.8788 124.295 27 123.901 26.2273C123.514 25.4545 122.961 24.8447 122.241 24.3977C121.529 23.9508 120.688 23.7273 119.719 23.7273C118.651 23.7273 117.726 23.9924 116.946 24.5227C116.173 25.0455 115.579 25.7273 115.162 26.5682C114.745 27.4091 114.537 28.3106 114.537 29.2727V30.8182C114.537 32.1364 114.764 33.2538 115.219 34.1705C115.681 35.0795 116.321 35.7727 117.139 36.25C117.957 36.7197 118.908 36.9545 119.991 36.9545C120.696 36.9545 121.332 36.8561 121.901 36.6591C122.476 36.4545 122.973 36.1515 123.389 35.75C123.806 35.3409 124.128 34.8333 124.355 34.2273L126.946 34.9545C126.673 35.8333 126.215 36.6061 125.571 37.2727C124.927 37.9318 124.132 38.447 123.185 38.8182C122.238 39.1818 121.173 39.3636 119.991 39.3636Z" fill="white"/>
<path d="M143.662 25.4545L141.253 26.1364C141.101 25.7348 140.878 25.3447 140.582 24.9659C140.295 24.5795 139.901 24.2614 139.401 24.0114C138.901 23.7614 138.26 23.6364 137.48 23.6364C136.412 23.6364 135.522 23.8826 134.81 24.375C134.105 24.8598 133.753 25.4773 133.753 26.2273C133.753 26.8939 133.995 27.4205 134.48 27.8068C134.965 28.1932 135.723 28.5152 136.753 28.7727L139.344 29.4091C140.904 29.7879 142.067 30.3674 142.832 31.1477C143.598 31.9205 143.98 32.9167 143.98 34.1364C143.98 35.1364 143.692 36.0303 143.116 36.8182C142.548 37.6061 141.753 38.2273 140.73 38.6818C139.707 39.1364 138.518 39.3636 137.162 39.3636C135.382 39.3636 133.908 38.9773 132.741 38.2045C131.575 37.4318 130.836 36.303 130.526 34.8182L133.071 34.1818C133.313 35.1212 133.772 35.8258 134.446 36.2955C135.128 36.7652 136.018 37 137.116 37C138.366 37 139.359 36.7348 140.094 36.2045C140.836 35.6667 141.207 35.0227 141.207 34.2727C141.207 33.6667 140.995 33.1591 140.571 32.75C140.147 32.3333 139.495 32.0227 138.616 31.8182L135.707 31.1364C134.109 30.7576 132.935 30.1705 132.185 29.375C131.442 28.572 131.071 27.5682 131.071 26.3636C131.071 25.3788 131.348 24.5076 131.901 23.75C132.461 22.9924 133.223 22.3977 134.185 21.9659C135.154 21.5341 136.253 21.3182 137.48 21.3182C139.207 21.3182 140.563 21.697 141.548 22.4545C142.541 23.2121 143.245 24.2121 143.662 25.4545Z" fill="white"/>
<path d="M155.108 39.3636C153.532 39.3636 152.15 38.9886 150.96 38.2386C149.778 37.4886 148.854 36.4394 148.188 35.0909C147.528 33.7424 147.199 32.1667 147.199 30.3636C147.199 28.5455 147.528 26.9583 148.188 25.6023C148.854 24.2462 149.778 23.1932 150.96 22.4432C152.15 21.6932 153.532 21.3182 155.108 21.3182C156.684 21.3182 158.062 21.6932 159.244 22.4432C160.434 23.1932 161.358 24.2462 162.017 25.6023C162.684 26.9583 163.017 28.5455 163.017 30.3636C163.017 32.1667 162.684 33.7424 162.017 35.0909C161.358 36.4394 160.434 37.4886 159.244 38.2386C158.062 38.9886 156.684 39.3636 155.108 39.3636ZM155.108 36.9545C156.305 36.9545 157.29 36.6477 158.062 36.0341C158.835 35.4205 159.407 34.6136 159.778 33.6136C160.15 32.6136 160.335 31.5303 160.335 30.3636C160.335 29.197 160.15 28.1098 159.778 27.1023C159.407 26.0947 158.835 25.2803 158.062 24.6591C157.29 24.0379 156.305 23.7273 155.108 23.7273C153.911 23.7273 152.926 24.0379 152.153 24.6591C151.381 25.2803 150.809 26.0947 150.438 27.1023C150.066 28.1098 149.881 29.197 149.881 30.3636C149.881 31.5303 150.066 32.6136 150.438 33.6136C150.809 34.6136 151.381 35.4205 152.153 36.0341C152.926 36.6477 153.911 36.9545 155.108 36.9545Z" fill="white"/>
<path d="M178.111 31.8636V21.5455H180.793V39H178.111V36.0455H177.929C177.52 36.9318 176.884 37.6856 176.02 38.3068C175.156 38.9205 174.065 39.2273 172.747 39.2273C171.656 39.2273 170.687 38.9886 169.838 38.5114C168.99 38.0265 168.323 37.2992 167.838 36.3295C167.353 35.3523 167.111 34.1212 167.111 32.6364V21.5455H169.793V32.4545C169.793 33.7273 170.149 34.7424 170.861 35.5C171.58 36.2576 172.497 36.6364 173.611 36.6364C174.277 36.6364 174.955 36.4659 175.645 36.125C176.342 35.7841 176.925 35.2614 177.395 34.5568C177.872 33.8523 178.111 32.9545 178.111 31.8636Z" fill="white"/>
<path d="M185.705 39V21.5455H188.295V24.1818H188.477C188.795 23.3182 189.371 22.6174 190.205 22.0795C191.038 21.5417 191.977 21.2727 193.023 21.2727C193.22 21.2727 193.466 21.2765 193.761 21.2841C194.057 21.2917 194.28 21.303 194.432 21.3182V24.0455C194.341 24.0227 194.133 23.9886 193.807 23.9432C193.489 23.8902 193.152 23.8636 192.795 23.8636C191.947 23.8636 191.189 24.0417 190.523 24.3977C189.864 24.7462 189.341 25.2311 188.955 25.8523C188.576 26.4659 188.386 27.1667 188.386 27.9545V39H185.705Z" fill="white"/>
<path d="M204.17 39.3636C202.534 39.3636 201.125 38.9773 199.943 38.2045C198.761 37.4318 197.852 36.3674 197.216 35.0114C196.58 33.6553 196.261 32.1061 196.261 30.3636C196.261 28.5909 196.587 27.0265 197.239 25.6705C197.898 24.3068 198.814 23.2424 199.989 22.4773C201.17 21.7045 202.549 21.3182 204.125 21.3182C205.352 21.3182 206.458 21.5455 207.443 22C208.428 22.4545 209.235 23.0909 209.864 23.9091C210.492 24.7273 210.883 25.6818 211.034 26.7727H208.352C208.148 25.9773 207.693 25.2727 206.989 24.6591C206.292 24.0379 205.352 23.7273 204.17 23.7273C203.125 23.7273 202.208 24 201.42 24.5455C200.64 25.0833 200.03 25.8447 199.591 26.8295C199.159 27.8068 198.943 28.9545 198.943 30.2727C198.943 31.6212 199.155 32.7955 199.58 33.7955C200.011 34.7955 200.617 35.572 201.398 36.125C202.186 36.678 203.11 36.9545 204.17 36.9545C204.867 36.9545 205.5 36.8333 206.068 36.5909C206.636 36.3485 207.117 36 207.511 35.5455C207.905 35.0909 208.186 34.5455 208.352 33.9091H211.034C210.883 34.9394 210.508 35.8674 209.909 36.6932C209.318 37.5114 208.534 38.1629 207.557 38.6477C206.587 39.125 205.458 39.3636 204.17 39.3636Z" fill="white"/>
<path d="M222.273 39.3636C220.591 39.3636 219.14 38.9924 217.92 38.25C216.708 37.5 215.773 36.4545 215.114 35.1136C214.462 33.7652 214.136 32.197 214.136 30.4091C214.136 28.6212 214.462 27.0455 215.114 25.6818C215.773 24.3106 216.689 23.2424 217.864 22.4773C219.045 21.7045 220.424 21.3182 222 21.3182C222.909 21.3182 223.807 21.4697 224.693 21.7727C225.58 22.0758 226.386 22.5682 227.114 23.25C227.841 23.9242 228.42 24.8182 228.852 25.9318C229.284 27.0455 229.5 28.4167 229.5 30.0455V31.1818H216.045V28.8636H226.773C226.773 27.8788 226.576 27 226.182 26.2273C225.795 25.4545 225.242 24.8447 224.523 24.3977C223.811 23.9508 222.97 23.7273 222 23.7273C220.932 23.7273 220.008 23.9924 219.227 24.5227C218.455 25.0455 217.86 25.7273 217.443 26.5682C217.027 27.4091 216.818 28.3106 216.818 29.2727V30.8182C216.818 32.1364 217.045 33.2538 217.5 34.1705C217.962 35.0795 218.602 35.7727 219.42 36.25C220.239 36.7197 221.189 36.9545 222.273 36.9545C222.977 36.9545 223.614 36.8561 224.182 36.6591C224.758 36.4545 225.254 36.1515 225.67 35.75C226.087 35.3409 226.409 34.8333 226.636 34.2273L229.227 34.9545C228.955 35.8333 228.496 36.6061 227.852 37.2727C227.208 37.9318 226.413 38.447 225.466 38.8182C224.519 39.1818 223.455 39.3636 222.273 39.3636Z" fill="white"/>
<path d="M245.943 25.4545L243.534 26.1364C243.383 25.7348 243.159 25.3447 242.864 24.9659C242.576 24.5795 242.182 24.2614 241.682 24.0114C241.182 23.7614 240.542 23.6364 239.761 23.6364C238.693 23.6364 237.803 23.8826 237.091 24.375C236.386 24.8598 236.034 25.4773 236.034 26.2273C236.034 26.8939 236.277 27.4205 236.761 27.8068C237.246 28.1932 238.004 28.5152 239.034 28.7727L241.625 29.4091C243.186 29.7879 244.348 30.3674 245.114 31.1477C245.879 31.9205 246.261 32.9167 246.261 34.1364C246.261 35.1364 245.973 36.0303 245.398 36.8182C244.83 37.6061 244.034 38.2273 243.011 38.6818C241.989 39.1364 240.799 39.3636 239.443 39.3636C237.663 39.3636 236.189 38.9773 235.023 38.2045C233.856 37.4318 233.117 36.303 232.807 34.8182L235.352 34.1818C235.595 35.1212 236.053 35.8258 236.727 36.2955C237.409 36.7652 238.299 37 239.398 37C240.648 37 241.64 36.7348 242.375 36.2045C243.117 35.6667 243.489 35.0227 243.489 34.2727C243.489 33.6667 243.277 33.1591 242.852 32.75C242.428 32.3333 241.777 32.0227 240.898 31.8182L237.989 31.1364C236.39 30.7576 235.216 30.1705 234.466 29.375C233.723 28.572 233.352 27.5682 233.352 26.3636C233.352 25.3788 233.629 24.5076 234.182 23.75C234.742 22.9924 235.504 22.3977 236.466 21.9659C237.436 21.5341 238.534 21.3182 239.761 21.3182C241.489 21.3182 242.845 21.697 243.83 22.4545C244.822 23.2121 245.527 24.2121 245.943 25.4545Z" fill="white"/>
</svg>
